{
    "asset" : {
        "generator" : "Khronos glTF Blender I/O v1.0.5",
        "version" : "2.0"
    },
    "scene" : 0,
    "scenes" : [
        {
            "name" : "Scene",
            "nodes" : [
                0
            ]
        }
    ],
    "nodes" : [
        {
            "mesh" : 0,
            "name" : "Box001",
            "scale" : [
                0.009999999776482582,
                0.009999999776482582,
                0.009999999776482582
            ]
        }
    ],
    "materials" : [
        {
            "doubleSided" : true,
            "name" : "Material.001",
            "normalTexture" : {
                "index" : 0,
                "scale" : 10,
                "texCoord" : 0
            },
            "pbrMetallicRoughness" : {
                "baseColorTexture" : {
                    "index" : 1,
                    "texCoord" : 0
                },
                "metallicFactor" : 0,
                "roughnessFactor" : 1
            }
        }
    ],
    "meshes" : [
        {
            "name" : "Mesh",
            "primitives" : [
                {
                    "attributes" : {
                        "POSITION" : 0,
                        "NORMAL" : 1,
                        "TEXCOORD_0" : 2
                    },
                    "indices" : 3,
                    "material" : 0
                }
            ]
        }
    ],
    "textures" : [
        {
            "source" : 0
        },
        {
            "source" : 1
        }
    ],
    "images" : [
        {
            "bufferView" : 4,
            "mimeType" : "image/jpeg",
            "name" : "pinenormal"
        },
        {
            "bufferView" : 5,
            "mimeType" : "image/jpeg",
            "name" : "Wood014_2K_Color"
        }
    ],
    "accessors" : [
        {
            "bufferView" : 0,
            "componentType" : 5126,
            "count" : 806,
            "max" : [
                2.389054298400879,
                44.279361724853516,
                14.119668960571289
            ],
            "min" : [
                -2.389054298400879,
                0,
                -14.119668960571289
            ],
            "type" : "VEC3"
        },
        {
            "bufferView" : 1,
            "componentType" : 5126,
            "count" : 806,
            "type" : "VEC3"
        },
        {
            "bufferView" : 2,
            "componentType" : 5126,
            "count" : 806,
            "type" : "VEC2"
        },
        {
            "bufferView" : 3,
            "componentType" : 5123,
            "count" : 3012,
            "type" : "SCALAR"
        }
    ],
    "bufferViews" : [
        {
            "buffer" : 0,
            "byteLength" : 9672,
            "byteOffset" : 0
        },
        {
            "buffer" : 0,
            "byteLength" : 9672,
            "byteOffset" : 9672
        },
        {
            "buffer" : 0,
            "byteLength" : 6448,
            "byteOffset" : 19344
        },
        {
            "buffer" : 0,
            "byteLength" : 6024,
            "byteOffset" : 25792
        },
        {
            "buffer" : 0,
            "byteLength" : 219017,
            "byteOffset" : 31816
        },
        {
            "buffer" : 0,
            "byteLength" : 2360736,
            "byteOffset" : 250836
        }
    ],
    "buffers" : [
        {
            "byteLength" : 2611572,
            "uri" : "data:application/octet-stream;base64,"
        }
    ]
}
